<svg xmlns="http://www.w3.org/2000/svg" version="1.1" xmlns:xlink="http://www.w3.org/1999/xlink" xmlns:svgjs="http://svgjs.dev/svgjs" width="1000" height="1125" viewBox="0 0 1000 1125"><g transform="matrix(1,0,0,1,0,0)"><svg viewBox="0 0 320 360" data-background-color="#ffffff" preserveAspectRatio="xMidYMid meet" height="1125" width="1000" xmlns="http://www.w3.org/2000/svg" xmlns:xlink="http://www.w3.org/1999/xlink"><g id="tight-bounds" transform="matrix(1,0,0,1,0,0)"><svg viewBox="0 0 320 360" height="360" width="320"><g><svg></svg></g><g><svg viewBox="0 0 320 360" height="360" width="320"><g><path d="M297.491 100.645c-12.426-21.51-112.674-79.355-137.491-79.355-24.817 0-125.028 57.845-137.491 79.355-11.591 20.02-11.591 138.726 0 158.746 12.463 21.474 112.674 79.319 137.491 79.319 24.817 0 125.064-57.845 137.491-79.355 11.591-20.02 11.591-138.69 0-158.71zM309.481 93.705c-14.461-24.998-119.469-86.295-149.481-86.295-30.012 0-135.02 61.297-149.481 86.295-14.025 24.199-14.025 148.391 0 172.59 14.461 24.998 119.469 86.295 149.481 86.295 30.012 0 135.02-61.297 149.481-86.259 14.025-24.235 14.025-148.427 0-172.626zM300.906 261.353c-12.753 22.055-115.472 81.317-140.906 81.318-25.434 0-128.153-59.298-140.906-81.354-11.881-20.529-11.881-142.178 0-162.707 12.753-22.019 115.472-81.281 140.906-81.281 25.434 0 128.153 59.298 140.906 81.318 11.881 20.529 11.881 142.178 0 162.706z" fill="#202232" fill-rule="nonzero" stroke="none" stroke-width="1" stroke-linecap="butt" stroke-linejoin="miter" stroke-miterlimit="10" stroke-dasharray="" stroke-dashoffset="0" font-family="none" font-weight="none" font-size="none" text-anchor="none" style="mix-blend-mode: normal" data-fill-palette-color="tertiary"></path></g><g transform="matrix(1,0,0,1,48.000000000000014,111.37454545454545)"><svg viewBox="0 0 223.99999999999997 137.2509090909091" height="137.2509090909091" width="223.99999999999997"><g><svg viewBox="0 0 223.99999999999997 137.2509090909091" height="137.2509090909091" width="223.99999999999997"><g><svg viewBox="0 0 223.99999999999997 137.2509090909091" height="137.2509090909091" width="223.99999999999997"><g><svg viewBox="0 0 223.99999999999997 137.2509090909091" height="137.2509090909091" width="223.99999999999997"><g id="textblocktransform"><svg viewBox="0 0 223.99999999999997 137.2509090909091" height="137.2509090909091" width="223.99999999999997" id="textblock"><g><svg viewBox="0 0 223.99999999999997 137.2509090909091" height="137.2509090909091" width="223.99999999999997"><g transform="matrix(1,0,0,1,0,0)"><svg width="223.99999999999997" viewBox="2.6 -33.1 55 33.7" height="137.2509090909091" data-palette-color="#ffffff"><path d="M9.6 0L2.6 0 2.6-32.5 11.35-32.5 14-21.9 14.9-17.7 15.1-17.7 16-21.9 18.65-32.5 27.4-32.5 27.4 0 20.3 0 20.3-7.65Q20.3-9.1 20.43-11.33 20.55-13.55 20.7-15.93 20.85-18.3 21.05-20.5 21.25-22.7 21.4-24.15L21.4-24.15 21.25-24.15 18.5-14.5 16.8-8.6 13-8.6 11.2-14.5 8.7-24.15 8.5-24.15Q8.65-22.7 8.85-20.5 9.05-18.3 9.2-15.93 9.35-13.55 9.47-11.33 9.6-9.1 9.6-7.65L9.6-7.65 9.6 0ZM47.25 0.6L47.25 0.6Q44.1 0.6 41.32-0.43 38.55-1.45 36.47-3.53 34.4-5.6 33.2-8.72 32-11.85 32-16L32-16Q32-20.1 33.2-23.3 34.4-26.5 36.47-28.68 38.55-30.85 41.35-31.98 44.15-33.1 47.3-33.1L47.3-33.1Q50.6-33.1 53-31.83 55.4-30.55 57-28.9L57-28.9 52.3-23.6Q51.3-24.6 50.17-25.15 49.05-25.7 47.3-25.7L47.3-25.7Q45.95-25.7 44.77-25.05 43.6-24.4 42.72-23.2 41.85-22 41.35-20.25 40.85-18.5 40.85-16.3L40.85-16.3Q40.85-11.7 42.55-9.25 44.25-6.8 47.75-6.8L47.75-6.8Q48.35-6.8 48.95-6.95 49.55-7.1 49.95-7.4L49.95-7.4 49.95-11.9 45.9-11.9 45.9-18.9 57.6-18.9 57.6-3.4Q56.75-2.65 55.62-1.93 54.5-1.2 53.15-0.65 51.8-0.1 50.3 0.25 48.8 0.6 47.25 0.6Z" opacity="1" transform="matrix(1,0,0,1,0,0)" fill="#ffffff" class="undefined-text-0" data-fill-palette-color="quaternary" id="text-0"></path></svg></g></svg></g></svg></g></svg></g><g></g></svg></g></svg></g></svg></g></svg></g><defs></defs></svg><rect width="320" height="360" fill="none" stroke="none" visibility="hidden"></rect></g></svg></g></svg>